<svg xmlns="http://www.w3.org/2000/svg" version="1.1" xmlns:xlink="http://www.w3.org/1999/xlink" xmlns:svgjs="http://svgjs.dev/svgjs" width="1500" height="208" viewBox="0 0 1500 208"><g transform="matrix(1,0,0,1,-0.9090909090909918,-0.6041018520954111)"><svg viewBox="0 0 396 55" data-background-color="#89939e" preserveAspectRatio="xMidYMid meet" height="208" width="1500" xmlns="http://www.w3.org/2000/svg" xmlns:xlink="http://www.w3.org/1999/xlink"><g id="tight-bounds" transform="matrix(1,0,0,1,0.2400000000000091,0.15973847050599943)"><svg viewBox="0 0 395.52 54.68052305898801" height="54.68052305898801" width="395.52"><g><svg viewBox="0 0 471.90533163714156 65.24077257343271" height="54.68052305898801" width="395.52"><g transform="matrix(1,0,0,1,76.3853316371416,9.016633546690048)"><svg viewBox="0 0 395.52 47.20750548005261" height="47.20750548005261" width="395.52"><g id="textblocktransform"><svg viewBox="0 0 395.52 47.20750548005261" height="47.20750548005261" width="395.52" id="textblock"><g><svg viewBox="0 0 395.52 47.20750548005261" height="47.20750548005261" width="395.52"><g transform="matrix(1,0,0,1,0,0)"><svg width="395.52" viewBox="1.55 -40.95 456.15999999999997 54.45" height="47.20750548005261" data-palette-color="#FFFFFF"><path d="M10.8 0.5Q7.95 0.5 6.55-0.8 5.15-2.1 5.15-5.25L5.15-5.25 5.15-24.45 1.55-24.45 1.55-26.7Q1.8-26.75 2.95-27.05 4.1-27.35 4.5-27.6L4.5-27.6Q5.3-28.05 5.75-29.4L5.75-29.4Q6.15-30.35 6.7-32.45 7.25-34.55 7.35-34.95L7.35-34.95 10.3-34.95 10.4-27.75 18.75-27.75 18.75-24.45 10.4-24.45 10.4-9.1Q10.4-6.25 10.58-5.1 10.75-3.95 11.33-3.6 11.9-3.25 13.3-3.25L13.3-3.25Q14.65-3.25 16.28-3.6 17.9-3.95 18.8-4.35L18.8-4.35 19.55-2.1Q18.35-1.2 15.68-0.35 13 0.5 10.8 0.5L10.8 0.5ZM25.3-2.85L25.3-37.3 21.1-37.85 21.1-40 29.25-40.95 29.35-40.95 30.45-40.2 30.45-28.6 30.25-24.35Q31.85-25.8 34.65-27.1 37.45-28.4 40.3-28.4L40.3-28.4Q43.45-28.4 45.2-27.2 46.95-26 47.65-23.53 48.35-21.05 48.35-16.85L48.35-16.85 48.35-2.9 51.85-2.45 51.85 0 39.9 0 39.9-2.45 43.15-2.9 43.15-16.9Q43.15-19.85 42.75-21.53 42.35-23.2 41.25-24.03 40.15-24.85 37.95-24.85L37.95-24.85Q36.15-24.85 34.1-23.95 32.05-23.05 30.5-21.85L30.5-21.85 30.5-2.9 33.95-2.45 33.95 0 22.3 0 22.3-2.45 25.3-2.85ZM67.84 0.55Q61.8 0.55 58.62-3.4 55.45-7.35 55.45-13.95L55.45-13.95Q55.45-18.3 57.09-21.6 58.75-24.9 61.72-26.7 64.7-28.5 68.5-28.5L68.5-28.5Q73.15-28.5 75.72-25.93 78.3-23.35 78.45-18.55L78.45-18.55Q78.45-15.5 78.09-13.9L78.09-13.9 60.9-13.9Q61-8.95 63.2-5.93 65.4-2.9 69.45-2.9L69.45-2.9Q71.45-2.9 73.62-3.63 75.8-4.35 77-5.35L77-5.35 77.95-3.15Q76.5-1.65 73.65-0.55 70.8 0.55 67.84 0.55L67.84 0.55ZM60.95-16.55L72.95-16.55Q73.09-17.6 73.09-18.7L73.09-18.7Q73.05-21.95 71.72-23.83 70.4-25.7 67.55-25.7L67.55-25.7Q64.65-25.7 62.92-23.6 61.2-21.5 60.95-16.55L60.95-16.55ZM97.59-2.9L97.59-23.9 93.99-24.8 93.99-27.5 101.14-28.4 101.29-28.4 102.34-27.5 102.34-25.4 102.29-24.2Q104.09-25.8 107.04-27.1 109.99-28.4 112.69-28.4L112.69-28.4Q115.84-28.4 117.56-27.2 119.29-26 119.99-23.53 120.69-21.05 120.69-16.85L120.69-16.85 120.69-2.85 124.19-2.5 124.19 0 112.34 0 112.34-2.45 115.44-2.85 115.44-16.9Q115.44-19.85 115.04-21.53 114.64-23.2 113.54-24.03 112.44-24.85 110.34-24.85L110.34-24.85Q108.54-24.85 106.49-23.95 104.44-23.05 102.84-21.85L102.84-21.85 102.84-2.9 106.24-2.45 106.24 0 94.44 0 94.44-2.45 97.59-2.9ZM150.54 0.45Q149.14 0.45 148.46-0.1 147.79-0.65 147.79-1.9L147.79-1.9 147.79-3.6Q146.14-1.95 143.66-0.7 141.19 0.55 138.69 0.55L138.69 0.55Q134.04 0.55 132.09-1.95 130.14-4.45 130.14-10.2L130.14-10.2 130.14-24.7 127.34-25.5 127.34-27.7 134.34-28.35 134.39-28.35 135.34-27.75 135.34-10.6Q135.34-7.7 135.76-6.08 136.19-4.45 137.26-3.68 138.34-2.9 140.39-2.9L140.39-2.9Q142.39-2.9 144.14-3.75 145.89-4.6 147.19-5.75L147.19-5.75 147.19-24.7 143.59-25.5 143.59-27.7 151.19-28.35 151.24-28.35 152.39-27.75 152.39-2.55 155.39-2.55 155.34-0.3Q153.94 0.05 152.91 0.25 151.89 0.45 150.54 0.45L150.54 0.45ZM159.34 0L159.34-2.45 162.39-2.9 162.39-23.9 158.79-24.8 158.79-27.5 165.94-28.4 166.84-27.75 167.14-25.75 167.09-24.15Q168.84-25.75 171.86-27.08 174.89-28.4 177.29-28.4L177.29-28.4Q179.99-28.4 181.64-27.5 183.29-26.6 184.14-24.7L184.14-24.7Q185.74-26.05 188.61-27.23 191.49-28.4 193.99-28.4L193.99-28.4Q197.09-28.4 198.84-27.23 200.59-26.05 201.31-23.58 202.04-21.1 202.04-16.95L202.04-16.95 202.04-2.9 205.64-2.45 205.64 0 193.74 0 193.74-2.45 196.84-2.9 196.84-16.8Q196.84-19.7 196.41-21.43 195.99-23.15 194.81-24 193.64-24.85 191.44-24.85L191.44-24.85Q189.79-24.85 187.94-24.13 186.09-23.4 184.79-22.4L184.79-22.4Q185.24-20.45 185.24-16.85L185.24-16.85 185.24-2.9 188.79-2.45 188.79 0 176.69 0 176.69-2.45 179.99-2.9 179.99-16.9Q179.99-19.9 179.61-21.55 179.24-23.2 178.19-24.03 177.14-24.85 174.99-24.85L174.99-24.85Q173.19-24.85 171.16-23.95 169.14-23.05 167.64-21.85L167.64-21.85 167.64-2.9 170.99-2.45 170.99 0 159.34 0ZM206.78-37.9L206.78-40 214.78-40.95 214.88-40.95 216.03-40.2 216.03-25.15Q217.53-26.6 219.61-27.55 221.68-28.5 224.23-28.5L224.23-28.5Q227.23-28.5 229.71-27.05 232.18-25.6 233.66-22.55 235.13-19.5 235.13-14.85L235.13-14.85Q235.13-10.55 233.36-7.05 231.58-3.55 228.28-1.5 224.98 0.55 220.63 0.55L220.63 0.55Q217.18 0.55 214.33-0.13 211.48-0.8 210.88-1.35L210.88-1.35 210.88-37.35 206.78-37.9ZM222.18-24.95Q220.28-24.95 218.66-24.08 217.03-23.2 216.03-22.1L216.03-22.1 216.03-3.7Q216.33-3 217.76-2.58 219.18-2.15 220.98-2.15L220.98-2.15Q224.83-2.15 227.18-5.25 229.53-8.35 229.53-14.3L229.53-14.3Q229.53-19.65 227.48-22.3 225.43-24.95 222.18-24.95L222.18-24.95ZM251.78 0.55Q245.73 0.55 242.56-3.4 239.38-7.35 239.38-13.95L239.38-13.95Q239.38-18.3 241.03-21.6 242.68-24.9 245.66-26.7 248.63-28.5 252.43-28.5L252.43-28.5Q257.08-28.5 259.66-25.93 262.23-23.35 262.38-18.55L262.38-18.55Q262.38-15.5 262.03-13.9L262.03-13.9 244.83-13.9Q244.93-8.95 247.13-5.93 249.33-2.9 253.38-2.9L253.38-2.9Q255.38-2.9 257.56-3.63 259.73-4.35 260.93-5.35L260.93-5.35 261.88-3.15Q260.43-1.65 257.58-0.55 254.73 0.55 251.78 0.55L251.78 0.55ZM244.88-16.55L256.88-16.55Q257.03-17.6 257.03-18.7L257.03-18.7Q256.98-21.95 255.66-23.83 254.33-25.7 251.48-25.7L251.48-25.7Q248.58-25.7 246.86-23.6 245.13-21.5 244.88-16.55L244.88-16.55ZM266.78 0L266.78-2.45 270.53-2.75 270.53-23.9 266.93-24.8 266.93-27.5 273.83-28.4 273.93-28.4 275.03-27.5 275.03-26.6 274.88-22.7 275.03-22.7Q275.53-23.55 276.83-24.9 278.13-26.25 280.18-27.38 282.23-28.5 284.63-28.5L284.63-28.5Q285.63-28.5 286.28-28.25L286.28-28.25 286.28-22.65Q285.93-22.9 285.15-23.13 284.38-23.35 283.43-23.35L283.43-23.35Q279.28-23.35 275.73-20.8L275.73-20.8 275.73-2.8 282.08-2.4 282.08 0 266.78 0ZM293.32-7.9L294.22-4Q294.72-3.25 296.35-2.65 297.97-2.05 299.77-2.05L299.77-2.05Q302.63-2.05 303.97-3.15 305.32-4.25 305.32-6.2L305.32-6.2Q305.32-7.55 304.47-8.55 303.63-9.55 302.1-10.33 300.57-11.1 297.72-12.2L297.72-12.2Q293.88-13.65 292.1-15.68 290.32-17.7 290.32-21L290.32-21Q290.32-23.2 291.65-24.85 292.97-26.5 295.3-27.43 297.63-28.35 300.47-28.35L300.47-28.35Q302.77-28.35 304.5-28 306.22-27.65 307.27-27.3 308.32-26.95 308.68-26.85L308.68-26.85 308.68-20.65 305.63-20.65 304.63-24.35Q304.32-24.95 303.02-25.38 301.72-25.8 300.13-25.8L300.13-25.8Q297.88-25.8 296.5-24.8 295.13-23.8 295.13-22.1L295.13-22.1Q295.13-20.6 295.85-19.63 296.57-18.65 297.68-18.05 298.77-17.45 300.68-16.65L300.68-16.65 301.68-16.25Q304.47-15.15 306.22-14.15 307.97-13.15 309.15-11.53 310.32-9.9 310.32-7.55L310.32-7.55Q310.32-3.85 307.45-1.65 304.57 0.55 299.57 0.55L299.57 0.55Q297.13 0.55 294.45-0.13 291.77-0.8 290.07-1.5L290.07-1.5 290.07-7.9 293.32-7.9ZM338.62 13.5Q332.22 13.5 329.35 11.48 326.47 9.45 326.47 5.9L326.47 5.9Q326.47 3.7 327.85 1.85 329.22 0 331.12-0.95L331.12-0.95Q328.82-2.25 328.82-5.15L328.82-5.15Q328.82-6.95 329.87-8.55 330.92-10.15 332.62-11L332.62-11Q330.12-12.1 328.8-14.15 327.47-16.2 327.47-19L327.47-19Q327.47-21.9 329.1-24.05 330.72-26.2 333.4-27.35 336.07-28.5 339.07-28.5L339.07-28.5Q344.12-28.5 346.97-26.4L346.97-26.4Q347.72-27.15 349.27-27.85 350.82-28.55 352.57-28.55L352.57-28.55 354.27-28.55 354.27-24.15 348.77-24.15Q349.97-22.3 349.97-19.85L349.97-19.85Q349.97-16.9 348.5-14.63 347.02-12.35 344.4-11.1 341.77-9.85 338.47-9.85L338.47-9.85Q336.32-9.85 334.62-10.3L334.62-10.3Q333.92-9.6 333.47-8.75 333.02-7.9 333.02-7.1L333.02-7.1Q333.02-5.3 334.22-4.63 335.42-3.95 338.52-3.95L338.52-3.95 344.17-3.95Q349.02-3.95 351.37-2.1 353.72-0.25 353.72 3.15L353.72 3.15Q353.72 6 351.67 8.38 349.62 10.75 346.15 12.13 342.67 13.5 338.62 13.5L338.62 13.5ZM338.97-12.6Q344.67-12.6 344.67-19.35L344.67-19.35Q344.67-22.7 343.19-24.28 341.72-25.85 338.77-25.85L338.77-25.85Q336.02-25.85 334.42-24.33 332.82-22.8 332.82-19.45L332.82-19.45Q332.82-16.3 334.35-14.45 335.87-12.6 338.97-12.6L338.97-12.6ZM339.07 10.6Q341.52 10.6 343.69 9.88 345.87 9.15 347.22 7.73 348.57 6.3 348.57 4.4L348.57 4.4Q348.57 2.15 347.37 1.13 346.17 0.1 342.72 0.1L342.72 0.1 336.82 0.1Q334.82 0.1 333.67-0.15L333.67-0.15Q331.62 2.1 331.62 4.9L331.62 4.9Q331.62 7.7 333.32 9.15 335.02 10.6 339.07 10.6L339.07 10.6ZM357.02-7.5Q357.02-12.2 361.72-14.43 366.42-16.65 373.62-16.8L373.62-16.8 373.62-18.2Q373.62-20.55 373.12-21.9 372.62-23.25 371.39-23.88 370.17-24.5 367.92-24.5L367.92-24.5Q365.37-24.5 363.34-23.78 361.32-23.05 359.32-22L359.32-22 358.07-24.6Q358.72-25.15 360.47-26.05 362.22-26.95 364.52-27.65 366.82-28.35 369.12-28.35L369.12-28.35Q372.67-28.35 374.74-27.38 376.82-26.4 377.72-24.25 378.62-22.1 378.62-18.5L378.62-18.5 378.62-2.45 381.57-2.45 381.57-0.25Q380.57 0 379.04 0.25 377.52 0.5 376.37 0.5L376.37 0.5Q374.97 0.5 374.47 0.08 373.97-0.35 373.97-1.8L373.97-1.8 373.97-3.45Q372.47-1.95 370.29-0.7 368.12 0.55 365.37 0.55L365.37 0.55Q361.77 0.55 359.39-1.53 357.02-3.6 357.02-7.5L357.02-7.5ZM367.52-2.85Q368.82-2.85 370.52-3.65 372.22-4.45 373.62-5.55L373.62-5.55 373.62-14.15Q368.17-14.15 365.39-12.48 362.62-10.8 362.62-8.1L362.62-8.1Q362.62-5.4 363.94-4.13 365.27-2.85 367.52-2.85L367.52-2.85ZM385.02 0L385.02-2.45 388.07-2.9 388.07-23.9 384.47-24.8 384.47-27.5 391.62-28.4 392.52-27.75 392.82-25.75 392.77-24.15Q394.52-25.75 397.54-27.08 400.57-28.4 402.97-28.4L402.97-28.4Q405.67-28.4 407.32-27.5 408.97-26.6 409.82-24.7L409.82-24.7Q411.42-26.05 414.29-27.23 417.17-28.4 419.67-28.4L419.67-28.4Q422.77-28.4 424.52-27.23 426.27-26.05 426.99-23.58 427.72-21.1 427.72-16.95L427.72-16.95 427.72-2.9 431.32-2.45 431.32 0 419.42 0 419.42-2.45 422.52-2.9 422.52-16.8Q422.52-19.7 422.09-21.43 421.67-23.15 420.49-24 419.32-24.85 417.12-24.85L417.12-24.85Q415.47-24.85 413.62-24.13 411.77-23.4 410.47-22.4L410.47-22.4Q410.92-20.45 410.92-16.85L410.92-16.85 410.92-2.9 414.47-2.45 414.47 0 402.37 0 402.37-2.45 405.67-2.9 405.67-16.9Q405.67-19.9 405.29-21.55 404.92-23.2 403.87-24.03 402.82-24.85 400.67-24.85L400.67-24.85Q398.87-24.85 396.84-23.95 394.82-23.05 393.32-21.85L393.32-21.85 393.32-2.9 396.67-2.45 396.67 0 385.02 0ZM447.11 0.55Q441.06 0.55 437.89-3.4 434.71-7.35 434.71-13.95L434.71-13.95Q434.71-18.3 436.36-21.6 438.01-24.9 440.99-26.7 443.96-28.5 447.76-28.5L447.76-28.5Q452.41-28.5 454.99-25.93 457.56-23.35 457.71-18.55L457.71-18.55Q457.71-15.5 457.36-13.9L457.36-13.9 440.16-13.9Q440.26-8.95 442.46-5.93 444.66-2.9 448.71-2.9L448.71-2.9Q450.71-2.9 452.89-3.63 455.06-4.35 456.26-5.35L456.26-5.35 457.21-3.15Q455.76-1.65 452.91-0.55 450.06 0.55 447.11 0.55L447.11 0.55ZM440.21-16.55L452.21-16.55Q452.36-17.6 452.36-18.7L452.36-18.7Q452.31-21.95 450.99-23.83 449.66-25.7 446.81-25.7L446.81-25.7Q443.91-25.7 442.19-23.6 440.46-21.5 440.21-16.55L440.21-16.55Z" opacity="1" transform="matrix(1,0,0,1,0,0)" fill="#FFFFFF" class="wordmark-text-0" data-fill-palette-color="primary" id="text-0"></path></svg></g></svg></g></svg></g></svg></g><g><svg viewBox="0 0 65.24077257343271 65.24077257343271" height="65.24077257343271" width="65.24077257343271"><g><svg xmlns="http://www.w3.org/2000/svg" xmlns:xlink="http://www.w3.org/1999/xlink" version="1.1" x="0" y="0" viewBox="17.5 17.5 55 55" enable-background="new 0 0 90 90" xml:space="preserve" height="65.24077257343271" width="65.24077257343271" class="icon-icon-0" data-fill-palette-color="accent" id="icon-0"><path d="M36 72.5c-0.276 0-0.5-0.224-0.5-0.5V18c0-0.276 0.224-0.5 0.5-0.5s0.5 0.224 0.5 0.5v54C36.5 72.276 36.276 72.5 36 72.5z" fill="#FFFFFF" data-fill-palette-color="accent"></path><path d="M54 72.5c-0.276 0-0.5-0.224-0.5-0.5V18c0-0.276 0.224-0.5 0.5-0.5s0.5 0.224 0.5 0.5v54C54.5 72.276 54.276 72.5 54 72.5z" fill="#FFFFFF" data-fill-palette-color="accent"></path><path d="M72 36.5H18c-0.276 0-0.5-0.224-0.5-0.5s0.224-0.5 0.5-0.5h54c0.276 0 0.5 0.224 0.5 0.5S72.276 36.5 72 36.5z" fill="#FFFFFF" data-fill-palette-color="accent"></path><path d="M72 54.5H18c-0.276 0-0.5-0.224-0.5-0.5s0.224-0.5 0.5-0.5h54c0.276 0 0.5 0.224 0.5 0.5S72.276 54.5 72 54.5z" fill="#FFFFFF" data-fill-palette-color="accent"></path></svg></g></svg></g></svg></g><defs></defs></svg><rect width="395.52" height="54.68052305898801" fill="none" stroke="none" visibility="hidden"></rect></g></svg></g></svg>