<svg xmlns="http://www.w3.org/2000/svg" version="1.1" xmlns:xlink="http://www.w3.org/1999/xlink" xmlns:svgjs="http://svgjs.dev/svgjs" width="128" height="128" viewBox="0 0 128 128"><g transform="matrix(0.8046875,0,0,0.8046875,12.760752631578946,12.760752631578946)"><svg viewBox="0 0 95 95" data-background-color="#89939e" preserveAspectRatio="xMidYMid meet" height="128" width="128" xmlns="http://www.w3.org/2000/svg" xmlns:xlink="http://www.w3.org/1999/xlink"><g id="tight-bounds" transform="matrix(1,0,0,1,-0.24049999999999727,-0.24049999999999727)"><svg viewBox="0 0 95.481 95.481" height="95.481" width="95.481"><g><svg viewBox="0 0 95.481 95.481" height="95.481" width="95.481"><g><svg viewBox="0 0 95.481 95.481" height="95.481" width="95.481"><g id="textblocktransform"><svg viewBox="0 0 95.481 95.481" height="95.481" width="95.481" id="textblock"><g><svg viewBox="0 0 95.481 95.481" height="95.481" width="95.481"><g><svg viewBox="0 0 95.481 95.481" height="95.481" width="95.481"><g><svg xmlns="http://www.w3.org/2000/svg" xmlns:xlink="http://www.w3.org/1999/xlink" version="1.1" x="0" y="0" viewBox="17.5 17.5 55 55" enable-background="new 0 0 90 90" xml:space="preserve" height="95.481" width="95.481" class="icon-icon-0" data-fill-palette-color="accent" id="icon-0"><path d="M36 72.5c-0.276 0-0.5-0.224-0.5-0.5V18c0-0.276 0.224-0.5 0.5-0.5s0.5 0.224 0.5 0.5v54C36.5 72.276 36.276 72.5 36 72.5z" fill="#000000" data-fill-palette-color="accent"></path><path d="M54 72.5c-0.276 0-0.5-0.224-0.5-0.5V18c0-0.276 0.224-0.5 0.5-0.5s0.5 0.224 0.5 0.5v54C54.5 72.276 54.276 72.5 54 72.5z" fill="#000000" data-fill-palette-color="accent"></path><path d="M72 36.5H18c-0.276 0-0.5-0.224-0.5-0.5s0.224-0.5 0.5-0.5h54c0.276 0 0.5 0.224 0.5 0.5S72.276 36.5 72 36.5z" fill="#000000" data-fill-palette-color="accent"></path><path d="M72 54.5H18c-0.276 0-0.5-0.224-0.5-0.5s0.224-0.5 0.5-0.5h54c0.276 0 0.5 0.224 0.5 0.5S72.276 54.5 72 54.5z" fill="#000000" data-fill-palette-color="accent"></path></svg></g></svg></g></svg></g></svg></g></svg></g></svg></g><defs></defs></svg><rect width="95.481" height="95.481" fill="none" stroke="none" visibility="hidden"></rect></g></svg></g></svg>